<mxfile host="app.diagrams.net" agent="Mozilla/5.0 (Macintosh; Intel Mac OS X 10_15_7) AppleWebKit/537.36 (KHTML, like Gecko) Chrome/127.0.0.0 Safari/537.36" version="24.7.16">
  <diagram name="Page-1" id="3flFgjHRNipA20K3kDpv">
    <mxGraphModel dx="1283" dy="856" grid="1" gridSize="10" guides="1" tooltips="1" connect="1" arrows="1" fold="1" page="1" pageScale="1" pageWidth="827" pageHeight="1169" math="0" shadow="0">
      <root>
        <mxCell id="0" />
        <mxCell id="1" parent="0" />
        <mxCell id="WEo-UJVrCRbUxOVBPFSD-1" value="&amp;lt;&amp;lt;model&amp;gt;&amp;gt;&lt;div&gt;&lt;span style=&quot;text-align: left;&quot;&gt;DocumentData:&amp;nbsp;&lt;/span&gt;&lt;/div&gt;&lt;div&gt;&lt;span style=&quot;text-align: left; background-color: initial;&quot;&gt;DocumentMetadata&lt;/span&gt;&lt;br&gt;&lt;/div&gt;" style="swimlane;fontStyle=0;childLayout=stackLayout;horizontal=1;startSize=40;horizontalStack=0;resizeParent=1;resizeParentMax=0;resizeLast=0;collapsible=1;marginBottom=0;whiteSpace=wrap;html=1;" vertex="1" parent="1">
          <mxGeometry x="70" y="420" width="190" height="100" as="geometry" />
        </mxCell>
        <mxCell id="WEo-UJVrCRbUxOVBPFSD-2" value="&lt;div&gt;- &lt;b&gt;Guid&lt;/b&gt; documentID&lt;/div&gt;- &lt;b&gt;string&lt;/b&gt; content&lt;div&gt;- &lt;b&gt;DocumentMetadata&lt;/b&gt; metadata&lt;/div&gt;" style="text;strokeColor=none;fillColor=none;align=left;verticalAlign=middle;spacingLeft=4;spacingRight=4;overflow=hidden;points=[[0,0.5],[1,0.5]];portConstraint=eastwest;rotatable=0;whiteSpace=wrap;html=1;" vertex="1" parent="WEo-UJVrCRbUxOVBPFSD-1">
          <mxGeometry y="40" width="190" height="60" as="geometry" />
        </mxCell>
        <mxCell id="WEo-UJVrCRbUxOVBPFSD-5" value="&amp;lt;&amp;lt;interface&amp;gt;&amp;gt;&lt;div&gt;ConvertToPDF&lt;/div&gt;" style="swimlane;fontStyle=0;childLayout=stackLayout;horizontal=1;startSize=30;horizontalStack=0;resizeParent=1;resizeParentMax=0;resizeLast=0;collapsible=1;marginBottom=0;whiteSpace=wrap;html=1;" vertex="1" parent="1">
          <mxGeometry x="420" y="120" width="350" height="210" as="geometry" />
        </mxCell>
        <mxCell id="WEo-UJVrCRbUxOVBPFSD-6" value="QueueConvertToPdf (&lt;b&gt;DocumentData&lt;/b&gt;): &lt;b&gt;Guid&lt;/b&gt;" style="text;strokeColor=none;fillColor=none;align=left;verticalAlign=middle;spacingLeft=4;spacingRight=4;overflow=hidden;points=[[0,0.5],[1,0.5]];portConstraint=eastwest;rotatable=0;whiteSpace=wrap;html=1;" vertex="1" parent="WEo-UJVrCRbUxOVBPFSD-5">
          <mxGeometry y="30" width="350" height="30" as="geometry" />
        </mxCell>
        <mxCell id="WEo-UJVrCRbUxOVBPFSD-7" value="GetConversionProgress (&lt;b&gt;Guid&lt;/b&gt;): &lt;b&gt;ConversionProgress&lt;/b&gt;" style="text;strokeColor=none;fillColor=none;align=left;verticalAlign=middle;spacingLeft=4;spacingRight=4;overflow=hidden;points=[[0,0.5],[1,0.5]];portConstraint=eastwest;rotatable=0;whiteSpace=wrap;html=1;" vertex="1" parent="WEo-UJVrCRbUxOVBPFSD-5">
          <mxGeometry y="60" width="350" height="30" as="geometry" />
        </mxCell>
        <mxCell id="WEo-UJVrCRbUxOVBPFSD-8" value="CancelConversion (&lt;b&gt;Guid&lt;/b&gt;): &lt;b&gt;Task&amp;lt;boolean&amp;gt;&lt;/b&gt;" style="text;strokeColor=none;fillColor=none;align=left;verticalAlign=middle;spacingLeft=4;spacingRight=4;overflow=hidden;points=[[0,0.5],[1,0.5]];portConstraint=eastwest;rotatable=0;whiteSpace=wrap;html=1;" vertex="1" parent="WEo-UJVrCRbUxOVBPFSD-5">
          <mxGeometry y="90" width="350" height="30" as="geometry" />
        </mxCell>
        <mxCell id="WEo-UJVrCRbUxOVBPFSD-23" value="GetConvertedDocument (&lt;b&gt;Guid&lt;/b&gt;): &lt;b&gt;ConvertedDocumentAsPdf&lt;/b&gt;" style="text;strokeColor=none;fillColor=none;align=left;verticalAlign=middle;spacingLeft=4;spacingRight=4;overflow=hidden;points=[[0,0.5],[1,0.5]];portConstraint=eastwest;rotatable=0;whiteSpace=wrap;html=1;" vertex="1" parent="WEo-UJVrCRbUxOVBPFSD-5">
          <mxGeometry y="120" width="350" height="30" as="geometry" />
        </mxCell>
        <mxCell id="WEo-UJVrCRbUxOVBPFSD-45" value="PickFirstInQueue (): &lt;b&gt;Guid&lt;/b&gt;" style="text;strokeColor=none;fillColor=none;align=left;verticalAlign=middle;spacingLeft=4;spacingRight=4;overflow=hidden;points=[[0,0.5],[1,0.5]];portConstraint=eastwest;rotatable=0;whiteSpace=wrap;html=1;" vertex="1" parent="WEo-UJVrCRbUxOVBPFSD-5">
          <mxGeometry y="150" width="350" height="30" as="geometry" />
        </mxCell>
        <mxCell id="WEo-UJVrCRbUxOVBPFSD-46" value="ConvertDocument (&lt;b&gt;Guid&lt;/b&gt;): &lt;b&gt;ConvertedDocumentAsPdf&lt;/b&gt;" style="text;strokeColor=none;fillColor=none;align=left;verticalAlign=middle;spacingLeft=4;spacingRight=4;overflow=hidden;points=[[0,0.5],[1,0.5]];portConstraint=eastwest;rotatable=0;whiteSpace=wrap;html=1;" vertex="1" parent="WEo-UJVrCRbUxOVBPFSD-5">
          <mxGeometry y="180" width="350" height="30" as="geometry" />
        </mxCell>
        <mxCell id="WEo-UJVrCRbUxOVBPFSD-9" value="&lt;b&gt;&lt;font style=&quot;font-size: 17px;&quot;&gt;Service For Converting Documents To PDF&lt;/font&gt;&lt;/b&gt;" style="text;html=1;align=center;verticalAlign=middle;resizable=0;points=[];autosize=1;strokeColor=none;fillColor=none;" vertex="1" parent="1">
          <mxGeometry x="229" y="30" width="370" height="30" as="geometry" />
        </mxCell>
        <mxCell id="WEo-UJVrCRbUxOVBPFSD-10" value="&amp;lt;&amp;lt;model&amp;gt;&amp;gt;&lt;div&gt;&lt;span style=&quot;text-align: left;&quot;&gt;ConversionProgress&lt;/span&gt;&lt;br&gt;&lt;/div&gt;" style="swimlane;fontStyle=0;childLayout=stackLayout;horizontal=1;startSize=30;horizontalStack=0;resizeParent=1;resizeParentMax=0;resizeLast=0;collapsible=1;marginBottom=0;whiteSpace=wrap;html=1;" vertex="1" parent="1">
          <mxGeometry x="380" y="620" width="190" height="120" as="geometry" />
        </mxCell>
        <mxCell id="WEo-UJVrCRbUxOVBPFSD-11" value="- &lt;b&gt;decimal&lt;/b&gt; PercentCompletion&lt;div&gt;- &lt;b&gt;Status&lt;/b&gt; status&lt;/div&gt;&lt;div&gt;- &lt;b&gt;Result&lt;/b&gt;? result&lt;/div&gt;&lt;div&gt;- &lt;b&gt;Date&lt;/b&gt; ConversionStarted&lt;/div&gt;&lt;div&gt;- &lt;b&gt;Date&lt;/b&gt;? ConversionEnded&lt;/div&gt;" style="text;strokeColor=none;fillColor=none;align=left;verticalAlign=middle;spacingLeft=4;spacingRight=4;overflow=hidden;points=[[0,0.5],[1,0.5]];portConstraint=eastwest;rotatable=0;whiteSpace=wrap;html=1;" vertex="1" parent="WEo-UJVrCRbUxOVBPFSD-10">
          <mxGeometry y="30" width="190" height="90" as="geometry" />
        </mxCell>
        <mxCell id="WEo-UJVrCRbUxOVBPFSD-12" value="&amp;lt;&amp;lt;enum&amp;gt;&amp;gt;&lt;div&gt;&lt;span style=&quot;text-align: left;&quot;&gt;Status&lt;/span&gt;&lt;br&gt;&lt;/div&gt;" style="swimlane;fontStyle=0;childLayout=stackLayout;horizontal=1;startSize=30;horizontalStack=0;resizeParent=1;resizeParentMax=0;resizeLast=0;collapsible=1;marginBottom=0;whiteSpace=wrap;html=1;" vertex="1" parent="1">
          <mxGeometry x="70" y="580" width="190" height="90" as="geometry" />
        </mxCell>
        <mxCell id="WEo-UJVrCRbUxOVBPFSD-13" value="&lt;div&gt;- Queued&lt;/div&gt;&lt;div&gt;- InProgress&lt;/div&gt;&lt;div&gt;- Completed&lt;/div&gt;" style="text;strokeColor=none;fillColor=none;align=left;verticalAlign=middle;spacingLeft=4;spacingRight=4;overflow=hidden;points=[[0,0.5],[1,0.5]];portConstraint=eastwest;rotatable=0;whiteSpace=wrap;html=1;" vertex="1" parent="WEo-UJVrCRbUxOVBPFSD-12">
          <mxGeometry y="30" width="190" height="60" as="geometry" />
        </mxCell>
        <mxCell id="WEo-UJVrCRbUxOVBPFSD-14" value="&amp;lt;&amp;lt;enum&amp;gt;&amp;gt;&lt;div&gt;&lt;span style=&quot;text-align: left;&quot;&gt;Result&lt;/span&gt;&lt;br&gt;&lt;/div&gt;" style="swimlane;fontStyle=0;childLayout=stackLayout;horizontal=1;startSize=30;horizontalStack=0;resizeParent=1;resizeParentMax=0;resizeLast=0;collapsible=1;marginBottom=0;whiteSpace=wrap;html=1;" vertex="1" parent="1">
          <mxGeometry x="70" y="690" width="190" height="80" as="geometry" />
        </mxCell>
        <mxCell id="WEo-UJVrCRbUxOVBPFSD-15" value="&lt;div&gt;- Success&lt;/div&gt;&lt;div&gt;- Failed&lt;/div&gt;&lt;div&gt;- Canceled&lt;/div&gt;" style="text;strokeColor=none;fillColor=none;align=left;verticalAlign=middle;spacingLeft=4;spacingRight=4;overflow=hidden;points=[[0,0.5],[1,0.5]];portConstraint=eastwest;rotatable=0;whiteSpace=wrap;html=1;" vertex="1" parent="WEo-UJVrCRbUxOVBPFSD-14">
          <mxGeometry y="30" width="190" height="50" as="geometry" />
        </mxCell>
        <mxCell id="WEo-UJVrCRbUxOVBPFSD-24" value="&amp;lt;&amp;lt;model&amp;gt;&amp;gt;&lt;div&gt;&lt;span style=&quot;text-align: left;&quot;&gt;ConvertedDocumentAsPdf :&amp;nbsp;&lt;/span&gt;&lt;span style=&quot;text-align: left; background-color: initial;&quot;&gt;DocumentMetadata&lt;/span&gt;&lt;br&gt;&lt;/div&gt;" style="swimlane;fontStyle=0;childLayout=stackLayout;horizontal=1;startSize=40;horizontalStack=0;resizeParent=1;resizeParentMax=0;resizeLast=0;collapsible=1;marginBottom=0;whiteSpace=wrap;html=1;" vertex="1" parent="1">
          <mxGeometry x="270" y="420" width="190" height="100" as="geometry" />
        </mxCell>
        <mxCell id="WEo-UJVrCRbUxOVBPFSD-25" value="&lt;div&gt;- &lt;b&gt;Guid&lt;/b&gt; documentID&lt;/div&gt;- &lt;b&gt;Stream&lt;/b&gt; content&lt;div&gt;- &lt;b&gt;DocumentMetadata&lt;/b&gt; metadata&lt;/div&gt;" style="text;strokeColor=none;fillColor=none;align=left;verticalAlign=middle;spacingLeft=4;spacingRight=4;overflow=hidden;points=[[0,0.5],[1,0.5]];portConstraint=eastwest;rotatable=0;whiteSpace=wrap;html=1;" vertex="1" parent="WEo-UJVrCRbUxOVBPFSD-24">
          <mxGeometry y="40" width="190" height="60" as="geometry" />
        </mxCell>
        <mxCell id="WEo-UJVrCRbUxOVBPFSD-26" value="&amp;lt;&amp;lt;model&amp;gt;&amp;gt;&lt;div&gt;&lt;span style=&quot;text-align: left;&quot;&gt;DocumentMetadata&lt;/span&gt;&lt;br&gt;&lt;/div&gt;" style="swimlane;fontStyle=0;childLayout=stackLayout;horizontal=1;startSize=30;horizontalStack=0;resizeParent=1;resizeParentMax=0;resizeLast=0;collapsible=1;marginBottom=0;whiteSpace=wrap;html=1;" vertex="1" parent="1">
          <mxGeometry x="190" y="270" width="160" height="100" as="geometry" />
        </mxCell>
        <mxCell id="WEo-UJVrCRbUxOVBPFSD-27" value="&lt;div&gt;- &lt;b&gt;string&lt;/b&gt; Title&lt;/div&gt;&lt;div&gt;- &lt;b&gt;Date&lt;/b&gt; CreatedDate&lt;/div&gt;&lt;div&gt;- &lt;b&gt;string&lt;/b&gt; AuthorFirstName&lt;/div&gt;&lt;div&gt;- &lt;b&gt;string&lt;/b&gt; AuthorLastName&lt;/div&gt;" style="text;strokeColor=none;fillColor=none;align=left;verticalAlign=middle;spacingLeft=4;spacingRight=4;overflow=hidden;points=[[0,0.5],[1,0.5]];portConstraint=eastwest;rotatable=0;whiteSpace=wrap;html=1;" vertex="1" parent="WEo-UJVrCRbUxOVBPFSD-26">
          <mxGeometry y="30" width="160" height="70" as="geometry" />
        </mxCell>
        <mxCell id="WEo-UJVrCRbUxOVBPFSD-32" style="edgeStyle=orthogonalEdgeStyle;rounded=0;orthogonalLoop=1;jettySize=auto;html=1;entryX=1;entryY=0.5;entryDx=0;entryDy=0;" edge="1" parent="1" source="WEo-UJVrCRbUxOVBPFSD-11" target="WEo-UJVrCRbUxOVBPFSD-15">
          <mxGeometry relative="1" as="geometry" />
        </mxCell>
        <mxCell id="WEo-UJVrCRbUxOVBPFSD-33" style="edgeStyle=orthogonalEdgeStyle;rounded=0;orthogonalLoop=1;jettySize=auto;html=1;entryX=1;entryY=0.5;entryDx=0;entryDy=0;exitX=0.011;exitY=0.339;exitDx=0;exitDy=0;exitPerimeter=0;" edge="1" parent="1" source="WEo-UJVrCRbUxOVBPFSD-11" target="WEo-UJVrCRbUxOVBPFSD-13">
          <mxGeometry relative="1" as="geometry" />
        </mxCell>
        <mxCell id="WEo-UJVrCRbUxOVBPFSD-34" style="edgeStyle=orthogonalEdgeStyle;rounded=0;orthogonalLoop=1;jettySize=auto;html=1;" edge="1" parent="1" source="WEo-UJVrCRbUxOVBPFSD-27" target="WEo-UJVrCRbUxOVBPFSD-1">
          <mxGeometry relative="1" as="geometry">
            <Array as="points">
              <mxPoint x="230" y="400" />
              <mxPoint x="160" y="400" />
            </Array>
          </mxGeometry>
        </mxCell>
        <mxCell id="WEo-UJVrCRbUxOVBPFSD-35" style="edgeStyle=orthogonalEdgeStyle;rounded=0;orthogonalLoop=1;jettySize=auto;html=1;" edge="1" parent="1" source="WEo-UJVrCRbUxOVBPFSD-27" target="WEo-UJVrCRbUxOVBPFSD-24">
          <mxGeometry relative="1" as="geometry">
            <Array as="points">
              <mxPoint x="300" y="400" />
              <mxPoint x="360" y="400" />
            </Array>
          </mxGeometry>
        </mxCell>
        <mxCell id="WEo-UJVrCRbUxOVBPFSD-39" value="" style="rounded=0;whiteSpace=wrap;html=1;fillColor=#d5e8d4;strokeColor=#82b366;" vertex="1" parent="1">
          <mxGeometry x="44" y="860" width="740" height="290" as="geometry" />
        </mxCell>
        <mxCell id="WEo-UJVrCRbUxOVBPFSD-40" value="&lt;h1 style=&quot;margin-top: 0px;&quot;&gt;Test cases&lt;/h1&gt;&lt;p&gt;1. Test that status is correct for a:&lt;/p&gt;&lt;p&gt;&lt;span style=&quot;white-space: pre;&quot;&gt;&#x9;&lt;/span&gt;a. Document that failed to be converted to PDF&lt;br&gt;&lt;/p&gt;&lt;p&gt;&lt;span style=&quot;white-space: pre;&quot;&gt;&#x9;&lt;/span&gt;b. Document that succeeded to be converted to PDF&lt;br&gt;&lt;/p&gt;&lt;p&gt;&lt;span style=&quot;white-space: pre;&quot;&gt;&#x9;&lt;/span&gt;c. Document that is canceled gets status Canceled and keeps integrity as original document&lt;br&gt;&lt;/p&gt;&lt;p&gt;2. Test that the textual content of a doc converted to PDF asserts equal&lt;/p&gt;&lt;p&gt;3. Test that subsequent documents are added to queue if conversion is in progress&lt;/p&gt;&lt;p&gt;4. Test that it is possible to remove document from queue&lt;/p&gt;" style="text;html=1;whiteSpace=wrap;overflow=hidden;rounded=0;" vertex="1" parent="1">
          <mxGeometry x="64" y="890" width="700" height="250" as="geometry" />
        </mxCell>
        <mxCell id="WEo-UJVrCRbUxOVBPFSD-41" value="&amp;lt;&amp;lt;DataBaseOperations&amp;gt;&amp;gt;" style="swimlane;fontStyle=0;childLayout=stackLayout;horizontal=1;startSize=30;horizontalStack=0;resizeParent=1;resizeParentMax=0;resizeLast=0;collapsible=1;marginBottom=0;whiteSpace=wrap;html=1;" vertex="1" parent="1">
          <mxGeometry x="630" y="590" width="140" height="150" as="geometry" />
        </mxCell>
        <mxCell id="WEo-UJVrCRbUxOVBPFSD-42" value="AddDocToQueue" style="text;strokeColor=none;fillColor=none;align=left;verticalAlign=middle;spacingLeft=4;spacingRight=4;overflow=hidden;points=[[0,0.5],[1,0.5]];portConstraint=eastwest;rotatable=0;whiteSpace=wrap;html=1;" vertex="1" parent="WEo-UJVrCRbUxOVBPFSD-41">
          <mxGeometry y="30" width="140" height="30" as="geometry" />
        </mxCell>
        <mxCell id="WEo-UJVrCRbUxOVBPFSD-43" value="RemoveDocFromQueue" style="text;strokeColor=none;fillColor=none;align=left;verticalAlign=middle;spacingLeft=4;spacingRight=4;overflow=hidden;points=[[0,0.5],[1,0.5]];portConstraint=eastwest;rotatable=0;whiteSpace=wrap;html=1;" vertex="1" parent="WEo-UJVrCRbUxOVBPFSD-41">
          <mxGeometry y="60" width="140" height="30" as="geometry" />
        </mxCell>
        <mxCell id="WEo-UJVrCRbUxOVBPFSD-44" value="SetAsConverted" style="text;strokeColor=none;fillColor=none;align=left;verticalAlign=middle;spacingLeft=4;spacingRight=4;overflow=hidden;points=[[0,0.5],[1,0.5]];portConstraint=eastwest;rotatable=0;whiteSpace=wrap;html=1;" vertex="1" parent="WEo-UJVrCRbUxOVBPFSD-41">
          <mxGeometry y="90" width="140" height="30" as="geometry" />
        </mxCell>
        <mxCell id="WEo-UJVrCRbUxOVBPFSD-47" value="GetDocument" style="text;strokeColor=none;fillColor=none;align=left;verticalAlign=middle;spacingLeft=4;spacingRight=4;overflow=hidden;points=[[0,0.5],[1,0.5]];portConstraint=eastwest;rotatable=0;whiteSpace=wrap;html=1;" vertex="1" parent="WEo-UJVrCRbUxOVBPFSD-41">
          <mxGeometry y="120" width="140" height="30" as="geometry" />
        </mxCell>
        <mxCell id="WEo-UJVrCRbUxOVBPFSD-48" style="edgeStyle=orthogonalEdgeStyle;rounded=0;orthogonalLoop=1;jettySize=auto;html=1;entryX=0.5;entryY=0;entryDx=0;entryDy=0;" edge="1" parent="1" source="WEo-UJVrCRbUxOVBPFSD-8" target="WEo-UJVrCRbUxOVBPFSD-41">
          <mxGeometry relative="1" as="geometry" />
        </mxCell>
        <mxCell id="WEo-UJVrCRbUxOVBPFSD-50" style="edgeStyle=orthogonalEdgeStyle;rounded=0;orthogonalLoop=1;jettySize=auto;html=1;entryX=0.25;entryY=0;entryDx=0;entryDy=0;" edge="1" parent="1" source="WEo-UJVrCRbUxOVBPFSD-6" target="WEo-UJVrCRbUxOVBPFSD-1">
          <mxGeometry relative="1" as="geometry" />
        </mxCell>
        <mxCell id="WEo-UJVrCRbUxOVBPFSD-28" value="Should the doc and PDF have common ID or personal?" style="shape=note;whiteSpace=wrap;html=1;backgroundOutline=1;darkOpacity=0.05;fillColor=#fff2cc;strokeColor=#d6b656;size=22;" vertex="1" parent="1">
          <mxGeometry x="10" y="300" width="170" height="70" as="geometry" />
        </mxCell>
        <mxCell id="WEo-UJVrCRbUxOVBPFSD-52" style="edgeStyle=orthogonalEdgeStyle;rounded=0;orthogonalLoop=1;jettySize=auto;html=1;entryX=0.5;entryY=0;entryDx=0;entryDy=0;" edge="1" parent="1" source="WEo-UJVrCRbUxOVBPFSD-7" target="WEo-UJVrCRbUxOVBPFSD-10">
          <mxGeometry relative="1" as="geometry">
            <Array as="points">
              <mxPoint x="400" y="195" />
              <mxPoint x="400" y="360" />
              <mxPoint x="475" y="360" />
            </Array>
          </mxGeometry>
        </mxCell>
        <mxCell id="WEo-UJVrCRbUxOVBPFSD-53" style="edgeStyle=orthogonalEdgeStyle;rounded=0;orthogonalLoop=1;jettySize=auto;html=1;entryX=0.58;entryY=0.002;entryDx=0;entryDy=0;entryPerimeter=0;" edge="1" parent="1" source="WEo-UJVrCRbUxOVBPFSD-23" target="WEo-UJVrCRbUxOVBPFSD-24">
          <mxGeometry relative="1" as="geometry" />
        </mxCell>
        <mxCell id="WEo-UJVrCRbUxOVBPFSD-54" style="edgeStyle=orthogonalEdgeStyle;rounded=0;orthogonalLoop=1;jettySize=auto;html=1;entryX=0.58;entryY=0.002;entryDx=0;entryDy=0;entryPerimeter=0;" edge="1" parent="1" source="WEo-UJVrCRbUxOVBPFSD-46" target="WEo-UJVrCRbUxOVBPFSD-24">
          <mxGeometry relative="1" as="geometry" />
        </mxCell>
      </root>
    </mxGraphModel>
  </diagram>
</mxfile>
